<mxfile host="app.diagrams.net" modified="2022-10-09T02:32:09.337Z" agent="5.0 (Windows NT 10.0; Win64; x64) AppleWebKit/537.36 (KHTML, like Gecko) Chrome/105.0.0.0 Safari/537.36" etag="LJkrV6W4MhvpqGDbuCgP" version="20.3.0" type="github">
  <diagram id="3JLpJHfi_rpCfiGwsalh" name="第 1 页">
    <mxGraphModel dx="845" dy="443" grid="1" gridSize="10" guides="1" tooltips="1" connect="1" arrows="1" fold="1" page="1" pageScale="1" pageWidth="827" pageHeight="1169" math="0" shadow="0">
      <root>
        <mxCell id="0" />
        <mxCell id="1" parent="0" />
        <mxCell id="vJ-rmsVRHr6NaJMBEqpZ-7" value="数据湖" style="shape=umlLifeline;perimeter=lifelinePerimeter;whiteSpace=wrap;html=1;container=1;collapsible=0;recursiveResize=0;outlineConnect=0;" vertex="1" parent="1">
          <mxGeometry x="130" y="20" width="100" height="400" as="geometry" />
        </mxCell>
        <mxCell id="vJ-rmsVRHr6NaJMBEqpZ-8" value="树根应用" style="shape=umlLifeline;perimeter=lifelinePerimeter;whiteSpace=wrap;html=1;container=1;collapsible=0;recursiveResize=0;outlineConnect=0;" vertex="1" parent="1">
          <mxGeometry x="414" y="20" width="100" height="400" as="geometry" />
        </mxCell>
        <mxCell id="vJ-rmsVRHr6NaJMBEqpZ-9" value="树根到客" style="shape=umlLifeline;perimeter=lifelinePerimeter;whiteSpace=wrap;html=1;container=1;collapsible=0;recursiveResize=0;outlineConnect=0;" vertex="1" parent="1">
          <mxGeometry x="727" y="20" width="100" height="400" as="geometry" />
        </mxCell>
      </root>
    </mxGraphModel>
  </diagram>
</mxfile>
